<svg version="1.1" xmlns="http://www.w3.org/2000/svg" xmlns:xlink="http://www.w3.org/1999/xlink" width="100" height="100" viewBox="718,315,100,100"><g id="document" fill-opacity="0" fill="#ffffff" fill-rule="nonzero" stroke="#000000" stroke-width="0" stroke-linecap="butt" stroke-linejoin="miter" stroke-miterlimit="10" stroke-dasharray="" stroke-dashoffset="0" font-family="none" font-weight="none" font-size="none" text-anchor="none" style="mix-blend-mode: normal"><rect x="5026" y="1575" transform="scale(0.14286,0.2)" width="700" height="500" id="Shape 1 1" vector-effect="non-scaling-stroke"/></g><g fill="none" fill-rule="nonzero" stroke="none" stroke-width="1" stroke-linecap="none" stroke-linejoin="none" stroke-miterlimit="10" stroke-dasharray="" stroke-dashoffset="0" font-family="none" font-weight="none" font-size="none" text-anchor="none" style="mix-blend-mode: normal"><g id="stage"><g id="layer1 1"><path d="" id="Path 1" fill="none" stroke="#000000" stroke-linecap="round" stroke-linejoin="round"/><g id="Group 1" fill="#696cff" stroke="none" stroke-linecap="butt" stroke-linejoin="miter" font-family="none" font-weight="none" font-size="NaN" text-anchor="start"/><g id="Group 1" fill="#696cff" stroke="none" stroke-linecap="butt" stroke-linejoin="miter" font-family="none" font-weight="none" font-size="NaN" text-anchor="start"/><g id="Group 1" fill="#696cff" stroke="none" stroke-linecap="butt" stroke-linejoin="miter"><circle cx="180.43815" cy="98.4339" transform="scale(4.21016,4.14707)" r="1.5" id="Shape 1"/><circle cx="187.43815" cy="98.4339" transform="scale(4.21016,4.14707)" r="1.5" id="Shape 1"/><path d="M791.24924,397.84466c1.73581,-0.00506 3.29057,-1.05895 3.91545,-2.65412l11.91475,-30.52244h-9.00974l-9.72547,24.88243h-27.95545l-18.90361,-44.66396c-1.31071,-3.09492 -4.38442,-5.10786 -7.78879,-5.1009h-9.80967v8.29414h9.80967l19.99825,47.19367c0.64584,1.54864 2.17371,2.56281 3.87335,2.57119z" id="Path 1"/><path d="M790.52275,338.22931l-15.56131,-5.48986c-3.12519,-1.10253 -6.56603,0.49919 -7.68534,3.57755l-12.16009,33.44319c-1.11931,3.07836 0.50679,6.46765 3.63198,7.57018l22.63463,7.98525c3.12519,1.10253 6.56603,-0.49919 7.68534,-3.57755l9.62674,-26.47586zM789.50941,341.01625l-2.02668,5.57387c-0.83948,2.30877 0.38009,4.85073 2.72398,5.67763l5.65866,1.99631l-9.62674,26.47586c-0.55965,1.53918 -2.28007,2.34004 -3.84267,1.78878l-22.63463,-7.98525c-1.5626,-0.55127 -2.37564,-2.24591 -1.81599,-3.78509l12.16009,-33.44319c0.55965,-1.53918 2.28007,-2.34004 3.84267,-1.78878z" id="CompoundPath 1"/><path d="M738.53491,332.49918c-1.07976,-2.50073 0.103,-5.39017 2.64177,-6.45375l18.38739,-7.70315c2.53877,-1.06358 5.47217,0.10145 6.55193,2.60218l11.73049,27.16779c1.07976,2.50073 -0.103,5.39017 -2.64177,6.45375l-18.38739,7.70315c-2.53877,1.06358 -5.47217,-0.10145 -6.55193,-2.60218zM760.5416,320.60626l-18.38739,7.70315c-1.26938,0.53179 -1.86076,1.97651 -1.32088,3.22687l11.73049,27.16779c0.53988,1.25036 2.00658,1.83288 3.27596,1.30109l18.38739,-7.70315c1.26938,-0.53179 1.86076,-1.97651 1.32088,-3.22687l-11.73049,-27.16779c-0.53988,-1.25036 -2.00658,-1.83288 -3.27596,-1.30109" id="CompoundPath 1"/></g></g></g></g></svg>